<svg xmlns="http://www.w3.org/2000/svg" version="1.1" xmlns:xlink="http://www.w3.org/1999/xlink" xmlns:svgjs="http://svgjs.com/svgjs" width="1440" height="560" preserveAspectRatio="none" viewBox="0 0 1440 560"><g mask="url(&quot;#SvgjsMask1032&quot;)" fill="none"><rect width="1440" height="560" x="0" y="0" fill="url(#SvgjsLinearGradient1033)"></rect><path d="M1165.32 440.59L1170.2 440.59L1170.2 493.37L1165.32 493.37z" stroke="rgba(202, 197, 13, 1)"></path><path d="M1211.63 300.23L1246 300.23L1246 334.6L1211.63 334.6z" fill="rgba(202, 197, 13, 1)"></path><path d="M580.12 243.91a9.33 9.33 0 1 0 6.62-17.45z" stroke="rgba(188, 188, 183, 1)"></path><path d="M484.63 195.75a13.13 13.13 0 1 0-25.07-7.79z" fill="rgba(202, 197, 13, 1)"></path><path d="M295.93 267.19L335.88 267.19L335.88 318.51L295.93 318.51z" fill="#e73635"></path><path d="M484.06 75.41L518.38 75.41L518.38 109.73L484.06 109.73z" stroke="#e73635"></path><path d="M359.34 486.64a25.18 25.18 0 1 0-36.92-34.26z" stroke="#e73635"></path><path d="M59.44 12.61L101.15 12.61L101.15 33.35L59.44 33.35z" stroke="rgba(188, 188, 183, 1)"></path><path d="M309.95 353.27L363.36 353.27L363.36 406.68L309.95 406.68z" stroke="rgba(188, 188, 183, 1)"></path><path d="M677.8 465.84L678.09 465.84L678.09 466.13L677.8 466.13z" stroke="rgba(202, 197, 13, 1)"></path><path d="M494.16 469.57L525.79 469.57L525.79 501.2L494.16 501.2z" fill="rgba(188, 188, 183, 1)"></path><path d="M748.23 408.42a47.93 47.93 0 1 0-95.82 2.66z" stroke="rgba(188, 188, 183, 1)"></path><path d="M1296.67 58.07a50.21 50.21 0 1 0-85.46-52.73z" fill="rgba(202, 197, 13, 1)"></path><path d="M1021.81 79.37 a28.25 28.25 0 1 0 56.5 0 a28.25 28.25 0 1 0 -56.5 0z" fill="rgba(202, 197, 13, 1)"></path><path d="M966.91 338.74L1009.61 338.74L1009.61 381.44L966.91 381.44z" fill="rgba(188, 188, 183, 1)"></path><path d="M1370.74 211.7L1406.58 211.7L1406.58 256.13L1370.74 256.13z" stroke="rgba(202, 197, 13, 1)"></path><path d="M1425.16 30.79L1461.38 30.79L1461.38 67.01L1425.16 67.01z" stroke="rgba(202, 197, 13, 1)"></path><path d="M1292.53 358.66L1338.49 358.66L1338.49 389.78L1292.53 389.78z" fill="rgba(202, 197, 13, 1)"></path><path d="M940.12 103.78 a25.6 25.6 0 1 0 51.2 0 a25.6 25.6 0 1 0 -51.2 0z" stroke="rgba(188, 188, 183, 1)"></path><path d="M1026.95 250.13 a40.55 40.55 0 1 0 81.1 0 a40.55 40.55 0 1 0 -81.1 0z" stroke="rgba(202, 197, 13, 1)"></path><path d="M1037.67 482.06L1070.79 482.06L1070.79 515.18L1037.67 515.18z" fill="rgba(202, 197, 13, 1)"></path><path d="M746.11 161.96a55.94 55.94 0 1 0 1.68-111.87z" stroke="rgba(202, 197, 13, 1)"></path><path d="M1404.91 210.76L1407.59 210.76L1407.59 250.1L1404.91 250.1z" fill="rgba(188, 188, 183, 1)"></path><path d="M613.03 504.4L638.74 504.4L638.74 530.11L613.03 530.11z" stroke="rgba(202, 197, 13, 1)"></path><path d="M798.09 472.87 a48.14 48.14 0 1 0 96.28 0 a48.14 48.14 0 1 0 -96.28 0z" stroke="rgba(188, 188, 183, 1)"></path><path d="M24.31 62.39L54.3 62.39L54.3 92.38L24.31 92.38z" fill="rgba(202, 197, 13, 1)"></path><path d="M142.32 405.19L153.74 405.19L153.74 416.61L142.32 416.61z" fill="#e73635"></path><path d="M774.78 175.79L778.03 175.79L778.03 185.61L774.78 185.61z" stroke="rgba(188, 188, 183, 1)"></path><path d="M1423.75 408.6L1426.97 408.6L1426.97 453.8L1423.75 453.8z" stroke="rgba(188, 188, 183, 1)"></path><path d="M939.48 285.83L985.65 285.83L985.65 296.83L939.48 296.83z" stroke="#e73635"></path><path d="M987.92 327.55L1040.16 327.55L1040.16 379.79L987.92 379.79z" fill="#e73635"></path><path d="M312.13 466.75 a19.3 19.3 0 1 0 38.6 0 a19.3 19.3 0 1 0 -38.6 0z" stroke="rgba(202, 197, 13, 1)"></path><path d="M1202.05 425.44L1222.39 425.44L1222.39 445.78L1202.05 445.78z" stroke="rgba(202, 197, 13, 1)"></path></g><defs><mask id="SvgjsMask1032"><rect width="1440" height="560" fill="#ffffff"></rect></mask><linearGradient x1="50%" y1="100%" x2="50%" y2="0%" gradientUnits="userSpaceOnUse" id="SvgjsLinearGradient1033"><stop stop-color="rgba(0, 69, 158, 0)" offset="0.33"></stop><stop stop-color="rgba(0, 69, 158, 0)" offset="1"></stop></linearGradient></defs></svg>